P2
# CREATOR: The GIMP's PNM Filter Version 1.0
32 16
255
255
255
255
255
255
255
255
255
255
255
255
255
255
255
255
255
255
255
255
255
255
255
255
255
255
255
255
255
255
255
255
255
255
0
0
0
0
0
0
0
0
8
19
29
40
50
60
71
81
92
102
112
123
133
143
154
164
175
185
195
206
216
227
237
255
0
0
0
0
0
0
0
2
13
23
34
44
54
65
75
86
96
106
117
127
138
148
158
169
179
189
200
210
221
231
241
255
0
0
0
0
0
0
0
7
17
28
38
48
59
69
80
90
100
111
121
132
142
152
163
173
184
194
204
215
225
235
246
255
0
0
0
0
0
0
1
11
22
32
43
53
63
74
84
94
105
115
126
136
146
157
167
178
188
198
209
219
230
240
250
255
0
0
0
0
0
0
5
16
26
37
47
57
68
78
89
99
109
120
130
140
151
161
172
182
192
203
213
224
234
244
254
255
0
0
0
0
0
0
10
20
31
41
51
62
72
83
93
103
114
124
135
145
155
166
176
186
197
207
218
228
238
249
254
255
0
0
0
0
0
4
14
25
35
45
56
66
77
87
97
108
118
129
139
149
160
170
181
191
201
212
222
232
243
253
254
255
0
0
0
0
0
8
19
29
40
50
60
71
81
91
102
112
123
133
143
154
164
175
185
195
206
216
227
237
247
254
254
255
0
0
0
0
2
13
23
34
44
54
65
75
86
96
106
117
127
137
148
158
169
179
189
200
210
221
231
241
252
254
254
255
0
0
0
0
7
17
28
38
48
59
69
80
90
100
111
121
132
142
152
163
173
183
194
204
215
225
235
246
254
254
254
255
0
0
0
1
11
22
32
42
53
63
74
84
94
105
115
126
136
146
157
167
178
188
198
209
219
229
240
250
254
254
254
255
0
0
0
5
16
26
37
47
57
68
78
88
99
109
120
130
140
151
161
172
182
192
203
213
224
234
244
254
254
254
254
255
0
0
0
10
20
31
41
51
62
72
83
93
103
114
124
134
145
155
166
176
186
197
207
218
228
238
249
254
254
254
254
255
0
0
4
14
25
35
45
56
66
77
87
97
108
118
129
139
149
160
170
180
191
201
212
222
232
243
253
254
254
254
254
255
0
0
8
19
29
39
50
60
71
81
91
102
112
123
133
143
154
164
175
185
195
206
216
226
237
247
254
254
254
254
254
